<?xml version="1.0" encoding="UTF-8"?>
<svg id="_레이어_1" data-name="레이어 1" xmlns="http://www.w3.org/2000/svg" xmlns:xlink="http://www.w3.org/1999/xlink" viewBox="0 0 245.65 245.65">
  <defs>
    <style>
      .cls-1 {
        fill: url(#_무제_그라디언트_4994);
      }

      .cls-2 {
        fill: url(#_무제_그라디언트_4997);
      }

      .cls-3 {
        fill: url(#_무제_그라디언트_4983);
      }

      .cls-4 {
        fill: url(#_무제_그라디언트_5013);
      }

      .cls-5 {
        fill: url(#_무제_그라디언트_5000);
      }

      .cls-6 {
        fill: #121212;
        filter: url(#drop-shadow-1);
      }
    </style>
    <filter id="drop-shadow-1" x="-45.03" y="-42.07" width="341.76" height="341.76" filterUnits="userSpaceOnUse">
      <feOffset dx="3" dy="6"/>
      <feGaussianBlur result="blur" stdDeviation="16"/>
      <feFlood flood-color="#000" flood-opacity=".17"/>
      <feComposite in2="blur" operator="in"/>
      <feComposite in="SourceGraphic"/>
    </filter>
    <linearGradient id="_무제_그라디언트_4983" data-name="무제 그라디언트 4983" x1="122.82" y1="208.69" x2="122.82" y2="36.95" gradientUnits="userSpaceOnUse">
      <stop offset="0" stop-color="#faf8fb"/>
      <stop offset=".32" stop-color="#fff"/>
      <stop offset=".4" stop-color="#cccbcd"/>
      <stop offset=".48" stop-color="#a9a8ab"/>
      <stop offset=".52" stop-color="#9c9b9e"/>
      <stop offset=".59" stop-color="#c1c0c2"/>
      <stop offset=".66" stop-color="#e3e2e3"/>
      <stop offset=".73" stop-color="#f7f7f7"/>
      <stop offset=".77" stop-color="#fff"/>
      <stop offset=".79" stop-color="#ededed"/>
      <stop offset=".83" stop-color="#c4c4c5"/>
      <stop offset=".88" stop-color="#a4a4a5"/>
      <stop offset=".92" stop-color="#8d8d8f"/>
      <stop offset=".96" stop-color="#7f7f81"/>
      <stop offset="1" stop-color="#7b7b7d"/>
    </linearGradient>
    <linearGradient id="_무제_그라디언트_5000" data-name="무제 그라디언트 5000" x1="94.46" y1="142.11" x2="130.16" y2="203.94" gradientUnits="userSpaceOnUse">
      <stop offset="0" stop-color="#faf8fb"/>
      <stop offset=".02" stop-color="#f6f4f7"/>
      <stop offset=".35" stop-color="#c1c0c3"/>
      <stop offset=".63" stop-color="#9b9a9d"/>
      <stop offset=".86" stop-color="#838385"/>
      <stop offset="1" stop-color="#7b7b7d"/>
    </linearGradient>
    <linearGradient id="_무제_그라디언트_4994" data-name="무제 그라디언트 4994" x1="149.89" y1="154.56" x2="189.94" y2="106.83" gradientUnits="userSpaceOnUse">
      <stop offset="0" stop-color="#faf8fb"/>
      <stop offset=".14" stop-color="#f2f0f3"/>
      <stop offset=".36" stop-color="#dcdbde"/>
      <stop offset=".62" stop-color="#bab9bb"/>
      <stop offset=".91" stop-color="#8a898b"/>
      <stop offset="1" stop-color="#7b7b7d"/>
    </linearGradient>
    <linearGradient id="_무제_그라디언트_4997" data-name="무제 그라디언트 4997" x1="76.61" y1="124.15" x2="76.61" y2="76.17" gradientUnits="userSpaceOnUse">
      <stop offset="0" stop-color="#faf8fb"/>
      <stop offset=".64" stop-color="#a5a5a7"/>
      <stop offset="1" stop-color="#7b7b7d"/>
    </linearGradient>
    <linearGradient id="_무제_그라디언트_5013" data-name="무제 그라디언트 5013" x1="145.48" y1="114.97" x2="145.48" y2="38.24" gradientUnits="userSpaceOnUse">
      <stop offset="0" stop-color="#faf8fb"/>
      <stop offset=".22" stop-color="#d8d6d9"/>
      <stop offset=".58" stop-color="#a6a5a7"/>
      <stop offset=".85" stop-color="#868688"/>
      <stop offset="1" stop-color="#7b7b7d"/>
    </linearGradient>
  </defs>
  <rect class="cls-6" width="245.65" height="245.65" rx="53.5" ry="53.5"/>
  <g>
    <path class="cls-3" d="M130.08,125.8c1.4-3.38,4.71-5.6,8.37-5.6h70.24v18.14h-48.34l20.11,20.12-12.81,12.83-35.6-35.6c-2.6-2.6-3.37-6.49-1.97-9.88ZM36.95,107.3v18.14h70.24c3.66,0,6.97-2.21,8.37-5.6,1.4-3.38.63-7.28-1.97-9.88l-35.59-35.6-12.83,12.83,20.12,20.12h-48.35ZM120.21,36.95v70.23c0,3.67,2.21,6.98,5.6,8.39,1.12.46,2.29.69,3.46.69,2.36,0,4.69-.93,6.42-2.66l35.59-35.6-12.83-12.83-20.11,20.12v-48.34h-18.14ZM74.36,167.64l12.83,12.83,20.12-20.12v48.35h18.13v-70.24c0-3.67-2.21-6.97-5.59-8.37-3.4-1.42-7.3-.64-9.88,1.96l-35.6,35.6Z"/>
    <path class="cls-5" d="M108.6,207.41v-50.17l-21.41,21.41-11.01-11.01,34.7-34.69c1.46-1.47,3.41-2.28,5.48-2.28,1.03,0,2.04.2,2.99.6,2.92,1.21,4.8,4.03,4.8,7.19v68.96h-15.56Z"/>
    <path class="cls-1" d="M132.95,134.77c-2.23-2.24-2.9-5.56-1.69-8.48,1.21-2.92,4.03-4.81,7.19-4.81h68.96v15.57h-50.16l21.39,21.41-10.99,11.01-34.69-34.69Z"/>
    <path class="cls-2" d="M38.24,124.15v-15.57h50.17l-21.41-21.41,11.01-11.01,34.68,34.69c2.24,2.24,2.9,5.56,1.69,8.48-1.21,2.92-4.03,4.81-7.19,4.81H38.24Z"/>
    <path class="cls-4" d="M129.27,114.97c-1.02,0-2.02-.2-2.97-.59-2.92-1.21-4.81-4.03-4.81-7.2V38.24h15.57v50.16l21.39-21.41,11.01,11.01-34.68,34.69c-1.45,1.45-3.46,2.28-5.51,2.28Z"/>
  </g>
</svg>