<?xml version="1.0" encoding="UTF-8"?>
<svg id="_레이어_1" data-name="레이어 1" xmlns="http://www.w3.org/2000/svg" xmlns:xlink="http://www.w3.org/1999/xlink" viewBox="0 0 398.71 133.52">
  <defs>
    <style>
      .cls-1 {
        fill: url(#_무제_그라디언트_4994);
      }

      .cls-2 {
        fill: url(#_무제_그라디언트_4997);
      }

      .cls-3 {
        fill: url(#_무제_그라디언트_4983);
      }

      .cls-4 {
        fill: url(#_무제_그라디언트_5013);
      }

      .cls-5 {
        fill: url(#_무제_그라디언트_5000);
      }

      .cls-6 {
        fill: #fff;
      }
    </style>
    <linearGradient id="_무제_그라디언트_4983" data-name="무제 그라디언트 4983" x1="66.76" y1="133.52" x2="66.76" y2="0" gradientUnits="userSpaceOnUse">
      <stop offset="0" stop-color="#faf8fb"/>
      <stop offset=".32" stop-color="#fff"/>
      <stop offset=".4" stop-color="#cccbcd"/>
      <stop offset=".48" stop-color="#a9a8ab"/>
      <stop offset=".52" stop-color="#9c9b9e"/>
      <stop offset=".59" stop-color="#c1c0c2"/>
      <stop offset=".66" stop-color="#e3e2e3"/>
      <stop offset=".73" stop-color="#f7f7f7"/>
      <stop offset=".77" stop-color="#fff"/>
      <stop offset=".79" stop-color="#ededed"/>
      <stop offset=".83" stop-color="#c4c4c5"/>
      <stop offset=".88" stop-color="#a4a4a5"/>
      <stop offset=".92" stop-color="#8d8d8f"/>
      <stop offset=".96" stop-color="#7f7f81"/>
      <stop offset="1" stop-color="#7b7b7d"/>
    </linearGradient>
    <linearGradient id="_무제_그라디언트_5000" data-name="무제 그라디언트 5000" x1="44.71" y1="81.75" x2="72.46" y2="129.82" gradientUnits="userSpaceOnUse">
      <stop offset="0" stop-color="#faf8fb"/>
      <stop offset=".02" stop-color="#f6f4f7"/>
      <stop offset=".35" stop-color="#c1c0c3"/>
      <stop offset=".63" stop-color="#9b9a9d"/>
      <stop offset=".86" stop-color="#838385"/>
      <stop offset="1" stop-color="#7b7b7d"/>
    </linearGradient>
    <linearGradient id="_무제_그라디언트_4994" data-name="무제 그라디언트 4994" x1="87.8" y1="91.44" x2="118.94" y2="54.32" gradientUnits="userSpaceOnUse">
      <stop offset="0" stop-color="#faf8fb"/>
      <stop offset=".14" stop-color="#f2f0f3"/>
      <stop offset=".36" stop-color="#dcdbde"/>
      <stop offset=".62" stop-color="#bab9bb"/>
      <stop offset=".91" stop-color="#8a898b"/>
      <stop offset="1" stop-color="#7b7b7d"/>
    </linearGradient>
    <linearGradient id="_무제_그라디언트_4997" data-name="무제 그라디언트 4997" x1="30.83" y1="67.79" x2="30.83" y2="30.49" gradientUnits="userSpaceOnUse">
      <stop offset="0" stop-color="#faf8fb"/>
      <stop offset=".64" stop-color="#a5a5a7"/>
      <stop offset="1" stop-color="#7b7b7d"/>
    </linearGradient>
    <linearGradient id="_무제_그라디언트_5013" data-name="무제 그라디언트 5013" x1="84.37" y1="60.66" x2="84.37" y2="1" gradientUnits="userSpaceOnUse">
      <stop offset="0" stop-color="#faf8fb"/>
      <stop offset=".22" stop-color="#d8d6d9"/>
      <stop offset=".58" stop-color="#a6a5a7"/>
      <stop offset=".85" stop-color="#868688"/>
      <stop offset="1" stop-color="#7b7b7d"/>
    </linearGradient>
  </defs>
  <path class="cls-3" d="M72.4,69.07c1.09-2.63,3.66-4.36,6.51-4.36h54.61v14.1h-37.58l15.63,15.64-9.96,9.97-27.68-27.68c-2.02-2.02-2.62-5.05-1.53-7.68ZM0,54.69v14.1h54.61c2.85,0,5.42-1.72,6.51-4.36,1.09-2.63.49-5.66-1.53-7.68l-27.67-27.68-9.97,9.97,15.64,15.64H0ZM64.73,0v54.6c0,2.86,1.72,5.43,4.36,6.52.87.36,1.78.54,2.69.54,1.83,0,3.65-.72,4.99-2.07l27.67-27.68-9.97-9.97-15.63,15.64V0h-14.1ZM29.08,101.6l9.97,9.97,15.64-15.64v37.59h14.09v-54.61c0-2.86-1.72-5.42-4.35-6.51-2.64-1.1-5.67-.5-7.68,1.52l-27.68,27.68Z"/>
  <path class="cls-5" d="M55.7,132.52v-39.01l-16.64,16.64-8.56-8.56,26.97-26.97c1.14-1.14,2.65-1.77,4.26-1.77.8,0,1.58.16,2.33.47,2.27.94,3.73,3.13,3.73,5.59v53.61h-12.09Z"/>
  <path class="cls-1" d="M74.64,76.05c-1.74-1.74-2.25-4.32-1.31-6.59.94-2.27,3.14-3.74,5.59-3.74h53.61v12.1h-39l16.63,16.64-8.55,8.56-26.97-26.97Z"/>
  <path class="cls-2" d="M1,67.79v-12.1h39.01l-16.64-16.64,8.56-8.56,26.96,26.97c1.74,1.74,2.25,4.32,1.31,6.59-.94,2.27-3.13,3.74-5.59,3.74H1Z"/>
  <path class="cls-4" d="M71.77,60.66c-.8,0-1.57-.15-2.31-.46-2.27-.94-3.74-3.14-3.74-5.6V1h12.1v39l16.63-16.64,8.56,8.56-26.96,26.97c-1.13,1.13-2.69,1.77-4.28,1.77Z"/>
  <path class="cls-6" d="M165.35,67.81c0-22.33,14.68-38.36,37-38.36,19.49,0,32.32,12.46,35.03,30.84l-10.98,1.97c-2.22-13.57-10.36-22.45-24.3-22.45-16.28,0-25.41,12.21-25.41,28s9,28.37,25.53,28.37c14.06,0,22.08-9.25,24.3-23.31l10.85,1.85c-2.47,18.5-15.66,31.7-35.15,31.7-22.57,0-36.88-16.28-36.88-38.61Z"/>
  <rect class="cls-6" x="243.55" y="29.32" width="10.73" height="75.61"/>
  <g>
    <rect class="cls-6" x="264.39" y="29.32" width="12.21" height="9.13"/>
    <rect class="cls-6" x="265.13" y="47.33" width="10.61" height="57.6"/>
  </g>
  <path class="cls-6" d="M297.44,104.93h-10.73v-57.6h10.73v15.54h.12c2.47-11.72,9.99-17.02,20.11-17.02,14.92,0,20.11,9.87,20.11,22.2v36.88h-10.73v-34.17c0-7.89-3.33-15.17-13.81-15.17-9.87,0-15.79,5.55-15.79,15.17v34.17Z"/>
  <polygon class="cls-6" points="357.63 71.88 358.5 71.88 383.66 47.33 396.73 47.33 396.73 47.58 367.01 75.82 398.71 104.69 398.71 104.93 385.39 104.93 358.62 80.02 357.63 80.02 357.63 104.93 346.9 104.93 346.9 29.32 357.63 29.32 357.63 71.88"/>
</svg>